<svg width="34" height="34" fill="none" xmlns="http://www.w3.org/2000/svg"><path d="M4.202 13.414a1.015 1.015 0 01-.806-.387.986.986 0 01-.072-1.104C4.604 9.786 8.5 4.798 17 4.798c3.684 0 6.914.967 9.598 2.875 2.208 1.565 3.446 3.336 4.036 4.19a.981.981 0 01-.266 1.38 1.031 1.031 0 01-1.41-.265C27.89 11.443 24.637 6.773 17 6.773c-7.454 0-10.824 4.298-11.922 6.14a.996.996 0 01-.876.501z" fill="#fff"/><path d="M21.282 32.938a1.02 1.02 0 01-.251-.029c-6.166-1.527-8.468-7.691-8.562-7.947l-.014-.057c-.051-.178-1.288-4.405.611-6.88.87-1.13 2.195-1.708 3.943-1.708 1.626 0 2.799.505 3.605 1.55.664.855.93 1.908 1.186 2.923.54 2.113.93 3.223 3.174 3.337.985.05 1.633-.527 2-1.018.993-1.338 1.166-3.52.417-5.445-.961-2.486-4.374-7.172-10.391-7.172-2.569 0-4.929.826-6.821 2.377-1.567 1.285-2.808 3.1-3.406 4.964-1.108 3.472.346 8.929.36 8.979a.985.985 0 01-.722 1.211 1.022 1.022 0 01-1.245-.703c-.066-.25-1.619-6.07-.338-10.082 1.394-4.348 5.698-8.73 12.174-8.73 2.993 0 5.82 1.017 8.18 2.938 1.828 1.494 3.32 3.5 4.102 5.507.993 2.561.726 5.436-.677 7.314-.935 1.252-2.266 1.907-3.741 1.836-3.842-.193-4.533-2.875-5.036-4.831-.518-2.007-.85-2.974-2.828-2.974-1.086 0-1.85.298-2.324.917-.648.847-.698 2.17-.626 3.13.047.67.16 1.332.338 1.979.158.398 2.216 5.445 7.145 6.666a.989.989 0 01.73 1.203 1.02 1.02 0 01-.983.745z" fill="#fff"/><path d="M13.368 32.482a1.03 1.03 0 01-.74-.313c-2.469-2.59-3.864-5.486-4.39-9.107v-.019c-.294-2.397.137-5.791 2.252-8.125 1.561-1.722 3.756-2.597 6.512-2.597 3.26 0 5.82 1.515 7.418 4.376 1.158 2.077 1.388 4.148 1.394 4.233a1 1 0 01-.906 1.089 1.013 1.013 0 01-1.115-.882 10.227 10.227 0 00-1.186-3.54c-1.238-2.183-3.121-3.294-5.612-3.294-2.152 0-3.835.648-4.993 1.926-1.67 1.843-1.993 4.682-1.764 6.56.46 3.202 1.691 5.75 3.864 8.025a.977.977 0 01-.05 1.402c-.188.17-.431.265-.684.266z" fill="#fff"/><path d="M24.736 29.63c-2.158 0-3.993-.598-5.46-1.787-2.95-2.376-3.281-6.247-3.296-6.41a1.014 1.014 0 112.022-.157c.007.057.302 3.223 2.576 5.047 1.345 1.074 3.144 1.5 5.36 1.252a1.01 1.01 0 011.123.875.99.99 0 01-.893 1.096c-.475.055-.953.083-1.432.083zm1.706-26.39C25.6 2.692 22.614 1.062 17 1.062c-5.893 0-8.886 1.8-9.548 2.258a.77.77 0 00-.122.093.024.024 0 01-.015.007.988.988 0 00-.338.74 1 1 0 001.017.986c.21 0 .417-.064.59-.185.028-.021 2.604-1.914 8.418-1.914 5.814 0 8.404 1.886 8.432 1.9.176.131.391.201.611.2a1 1 0 001.015-.99.989.989 0 00-.618-.917z" fill="#fff"/></svg>