<svg width="39" height="39" fill="none" xmlns="http://www.w3.org/2000/svg"><circle cx="19.5" cy="19.5" r="19.5" fill="#fff" fill-opacity=".06"/><circle cx="19.5" cy="19.5" r="19" stroke="#2A2A2A" stroke-opacity=".42"/><path d="M13.896 18.24a15.78 15.78 0 006.864 6.864l2.292-2.291a1.036 1.036 0 011.063-.25 11.89 11.89 0 003.718.593c.573 0 1.042.469 1.042 1.042v3.635c0 .573-.469 1.042-1.042 1.042-9.78 0-17.708-7.927-17.708-17.708 0-.573.469-1.042 1.042-1.042h3.646c.572 0 1.041.469 1.041 1.042 0 1.302.209 2.552.594 3.718.114.365.031.771-.26 1.063l-2.292 2.292z" fill="#2A2A2A"/></svg>