<svg width="40" height="40" fill="none" xmlns="http://www.w3.org/2000/svg"><circle cx="20.034" cy="19.9" r="19.9" fill="#F7603F"/><path d="M19.523 17.223a3.195 3.195 0 00-3.188 3.188 3.195 3.195 0 003.188 3.188 3.195 3.195 0 003.189-3.188 3.195 3.195 0 00-3.189-3.188zm9.563 3.188c0-1.32.012-2.629-.062-3.947-.075-1.53-.424-2.889-1.543-4.008-1.122-1.122-2.478-1.469-4.009-1.543-1.32-.074-2.628-.062-3.946-.062-1.32 0-2.629-.012-3.947.062-1.53.074-2.89.423-4.009 1.543-1.121 1.122-1.468 2.478-1.542 4.008-.074 1.32-.062 2.629-.062 3.947s-.012 2.629.062 3.947c.074 1.53.423 2.889 1.542 4.008 1.122 1.122 2.478 1.469 4.01 1.543 1.32.074 2.628.062 3.946.062 1.32 0 2.628.012 3.946-.062 1.53-.074 2.89-.424 4.009-1.543 1.122-1.122 1.468-2.478 1.543-4.008.076-1.318.062-2.627.062-3.947zm-9.563 4.906a4.899 4.899 0 01-4.905-4.906 4.899 4.899 0 014.905-4.906 4.899 4.899 0 014.906 4.906 4.899 4.899 0 01-4.906 4.906zm5.107-8.867a1.144 1.144 0 01-1.146-1.146c0-.633.512-1.145 1.146-1.145a1.144 1.144 0 01.81 1.956 1.145 1.145 0 01-.81.335z" fill="#fff"/></svg>