<svg width="38" height="38" fill="none" xmlns="http://www.w3.org/2000/svg"><path d="M16.71 9.88l-5.356-6.183c-.617-.712-1.75-.71-2.467.01L4.482 8.119c-1.31 1.313-1.686 3.262-.927 4.825a46.244 46.244 0 0021.471 21.501c1.561.759 3.509.383 4.82-.929l4.446-4.454c.72-.72.722-1.859.003-2.476l-6.207-5.328c-.649-.557-1.657-.485-2.308.168l-2.16 2.163a.732.732 0 01-.875.139 23.048 23.048 0 01-8.487-8.498.733.733 0 01.14-.877l2.153-2.155c.652-.655.723-1.669.16-2.32v.002z" stroke="#2A2A2A" stroke-width="2" stroke-linecap="round" stroke-linejoin="round"/></svg>