<svg width="30" height="38" fill="none" xmlns="http://www.w3.org/2000/svg"><path d="M24.894 21.233c-1.244 2.522-2.93 5.034-4.655 7.29A74.819 74.819 0 0115 34.628a74.772 74.772 0 01-5.24-6.103c-1.723-2.257-3.41-4.77-4.654-7.291-1.259-2.549-1.981-4.936-1.981-6.983a11.875 11.875 0 0123.75 0c0 2.047-.724 4.434-1.98 6.983zM15 38s14.25-13.504 14.25-23.75a14.25 14.25 0 10-28.5 0C.75 24.496 15 38 15 38z" fill="#2A2A2A"/><path d="M15 19a4.75 4.75 0 110-9.5 4.75 4.75 0 010 9.5zm0 2.375a7.125 7.125 0 100-14.25 7.125 7.125 0 000 14.25z" fill="#2A2A2A"/></svg>