<svg width="40" height="40" fill="none" xmlns="http://www.w3.org/2000/svg"><circle cx="19.967" cy="19.9" r="19.9" fill="#1D9BF0"/><g clip-path="url(#clip0_102_9)"><path d="M31.338 13.203a9.52 9.52 0 01-2.73.748 4.766 4.766 0 002.09-2.631 9.489 9.489 0 01-3.018 1.153 4.756 4.756 0 00-8.101 4.337 13.5 13.5 0 01-9.8-4.968 4.752 4.752 0 00-.642 2.39 4.755 4.755 0 002.114 3.958 4.743 4.743 0 01-2.153-.595v.061a4.756 4.756 0 003.814 4.662c-.7.19-1.435.217-2.148.082a4.757 4.757 0 004.442 3.3A9.54 9.54 0 019.3 27.736c-.38 0-.758-.022-1.135-.067a13.446 13.446 0 007.287 2.136c8.745 0 13.527-7.243 13.527-13.526 0-.204-.005-.41-.015-.614a9.667 9.667 0 002.371-2.46l.002-.002z" fill="#fff"/></g><defs><clipPath id="clip0_102_9"><path fill="#fff" transform="translate(7.21 8.165)" d="M0 0h24.492v24.492H0z"/></clipPath></defs></svg>