<svg width="40" height="40" fill="none" xmlns="http://www.w3.org/2000/svg"><circle cx="19.9" cy="19.9" r="19.9" fill="#07F"/><g clip-path="url(#clip0_102_8)"><path fill-rule="evenodd" clip-rule="evenodd" d="M31.075 14.235c.169-.558 0-.968-.812-.968h-2.679c-.681 0-.996.354-1.166.745 0 0-1.362 3.262-3.292 5.38-.625.615-.908.81-1.25.81-.17 0-.426-.195-.426-.754v-5.213c0-.67-.188-.968-.755-.968h-4.213c-.425 0-.681.31-.681.605 0 .634.965.78 1.064 2.565v3.876c0 .85-.156 1.004-.497 1.004-.908 0-3.118-3.277-4.43-7.026-.253-.73-.51-1.024-1.195-1.024H8.062c-.765 0-.918.354-.918.745 0 .696.908 4.154 4.23 8.726 2.214 3.123 5.332 4.816 8.172 4.816 1.703 0 1.913-.375 1.913-1.023v-2.36c0-.753.162-.903.701-.903.398 0 1.08.196 2.669 1.701 1.817 1.785 2.116 2.585 3.138 2.585h2.679c.765 0 1.15-.375.929-1.118-.243-.74-1.11-1.812-2.26-3.084-.625-.725-1.562-1.506-1.847-1.896-.397-.501-.284-.725 0-1.17 0 0 3.266-4.518 3.606-6.052z" fill="#fff"/></g><defs><clipPath id="clip0_102_8"><path fill="#fff" transform="translate(7.144 8.165)" d="M0 0h24.492v24.492H0z"/></clipPath></defs></svg>