<svg width="34" height="34" viewBox="0 0 34 34" fill="none" xmlns="http://www.w3.org/2000/svg">
<path d="M4.20219 13.4141C4.02301 13.4157 3.8466 13.3699 3.69086 13.2812C3.57663 13.217 3.47635 13.1307 3.3959 13.0273C3.31544 12.9238 3.25642 12.8054 3.22228 12.6789C3.18815 12.5524 3.17959 12.4203 3.19711 12.2905C3.21462 12.1606 3.25786 12.0355 3.3243 11.9226C4.60461 9.78562 8.5 4.79785 17 4.79785C20.6836 4.79785 23.9142 5.76539 26.5977 7.67258C28.8064 9.23777 30.0442 11.0095 30.6339 11.8628C30.7087 11.9704 30.7612 12.0918 30.7883 12.22C30.8155 12.3481 30.8167 12.4804 30.792 12.6091C30.7672 12.7377 30.717 12.8601 30.6442 12.9691C30.5714 13.078 30.4776 13.1713 30.3682 13.2434C30.1447 13.3911 29.8725 13.446 29.6092 13.3965C29.3459 13.3469 29.1122 13.1967 28.9578 12.9778C27.8906 11.4431 24.6367 6.77344 17 6.77344C9.5459 6.77344 6.17578 11.0706 5.07809 12.9134C4.98989 13.0672 4.8622 13.1948 4.70822 13.2828C4.55424 13.3708 4.37954 13.4161 4.20219 13.4141Z" fill="white"/>
<path d="M21.2825 32.9375C21.1978 32.9385 21.1132 32.9289 21.0309 32.909C14.865 31.3816 12.5627 25.2178 12.4691 24.9615L12.4545 24.905C12.404 24.7271 11.1669 20.5003 13.0661 18.0247C13.9367 16.8958 15.2608 16.3167 17.0093 16.3167C18.6349 16.3167 19.8077 16.8221 20.6138 17.8679C21.2779 18.7219 21.5435 19.7751 21.8005 20.7898C22.3404 22.9029 22.7302 24.0125 24.9741 24.1267C25.9595 24.1765 26.607 23.6001 26.9742 23.1094C27.967 21.7713 28.1397 19.5899 27.3913 17.6641C26.4297 15.1785 23.0171 10.4922 17 10.4922C14.4314 10.4922 12.0713 11.3176 10.1788 12.8689C8.61224 14.1538 7.3711 15.9681 6.77345 17.8328C5.66513 21.3045 7.11876 26.7617 7.13271 26.8115C7.16665 26.9386 7.17481 27.0711 7.15672 27.2013C7.13863 27.3315 7.09466 27.4568 7.02738 27.5697C6.96011 27.6827 6.8709 27.781 6.76501 27.8589C6.65913 27.9369 6.53871 27.9928 6.41087 28.0235C6.15259 28.0921 5.87768 28.0569 5.64506 27.9253C5.41244 27.7938 5.24062 27.5763 5.16642 27.3195C5.10001 27.0705 3.54743 21.25 4.82774 17.2378C6.22228 12.8901 10.5261 8.50732 17.002 8.50732C19.9949 8.50732 22.8225 9.52467 25.1826 11.4458C27.0101 12.9399 28.5029 14.9467 29.2838 16.9529C30.2766 19.5142 30.0103 22.3889 28.6072 24.2669C27.6722 25.5193 26.3407 26.174 24.8658 26.103C21.0236 25.9104 20.3329 23.2283 19.8296 21.2719C19.3116 19.2651 18.9802 18.2976 17.002 18.2976C15.9156 18.2976 15.1526 18.5964 14.6778 19.2153C14.0303 20.062 13.9799 21.3855 14.0516 22.3457C14.0987 23.0147 14.2121 23.6774 14.3902 24.324C14.5483 24.7224 16.6062 29.7693 21.5349 30.9905C21.6623 31.0207 21.7824 31.0759 21.8883 31.1529C21.9942 31.2299 22.0837 31.3271 22.1516 31.439C22.2196 31.5509 22.2647 31.6752 22.2842 31.8047C22.3037 31.9341 22.2973 32.0661 22.2654 32.1931C22.2052 32.4074 22.0766 32.5962 21.8992 32.7306C21.7217 32.865 21.5052 32.9377 21.2825 32.9375Z" fill="white"/>
<path d="M13.3682 32.482C13.23 32.4823 13.0932 32.4547 12.9659 32.401C12.8386 32.3473 12.7234 32.2684 12.6271 32.1692C10.1595 29.5794 8.76363 26.6834 8.23836 23.0623V23.043C7.94352 20.6457 8.37516 17.2517 10.4902 14.9182C12.0514 13.1963 14.2461 12.321 17.002 12.321C20.2612 12.321 22.8225 13.8364 24.4196 16.6966C25.5784 18.7744 25.8081 20.845 25.8141 20.93C25.8263 21.061 25.8124 21.1932 25.7734 21.3189C25.7344 21.4446 25.671 21.5614 25.5868 21.6625C25.5026 21.7637 25.3993 21.8472 25.2827 21.9084C25.1662 21.9696 25.0387 22.0072 24.9077 22.019C24.6432 22.0477 24.378 21.9713 24.1694 21.8061C23.9608 21.641 23.8255 21.4005 23.7927 21.1365C23.6178 19.8941 23.2157 18.6945 22.6067 17.5977C21.3689 15.4136 19.4856 14.3033 16.9947 14.3033C14.8431 14.3033 13.1597 14.9507 12.0016 16.2291C10.3321 18.0718 10.0094 20.9107 10.2385 22.7887C10.6987 25.9908 11.9292 28.5381 14.102 30.8145C14.1927 30.9089 14.2635 31.0205 14.3102 31.1427C14.3569 31.265 14.3785 31.3954 14.3738 31.5261C14.3691 31.6569 14.3382 31.7854 14.2828 31.904C14.2274 32.0225 14.1488 32.1288 14.0516 32.2164C13.8643 32.3861 13.621 32.4807 13.3682 32.482Z" fill="white"/>
<path d="M24.7363 29.6291C22.5781 29.6291 20.7433 29.0315 19.2751 27.8435C16.3253 25.4668 15.9946 21.596 15.98 21.4326C15.9592 21.1645 16.0458 20.8991 16.2207 20.6948C16.3956 20.4905 16.6445 20.364 16.9127 20.3432C17.1808 20.3224 17.4462 20.409 17.6505 20.5839C17.8548 20.7589 17.9813 21.0078 18.0021 21.2759C18.0094 21.333 18.3042 24.4993 20.578 26.3228C21.9233 27.3972 23.7216 27.8236 25.9376 27.5745C26.2024 27.5424 26.4692 27.6164 26.6797 27.7804C26.8901 27.9445 27.027 28.1851 27.0605 28.4498C27.075 28.5805 27.0634 28.7128 27.0262 28.839C26.989 28.9652 26.9271 29.0827 26.844 29.1847C26.7609 29.2867 26.6583 29.3711 26.5423 29.4331C26.4262 29.495 26.299 29.5332 26.168 29.5455C25.6928 29.6009 25.2148 29.6289 24.7363 29.6291ZM26.4416 3.23996C25.5996 2.69211 22.614 1.0625 17 1.0625C11.1071 1.0625 8.11417 2.86277 7.4521 3.32031C7.40837 3.34715 7.36744 3.3783 7.32991 3.41328C7.32595 3.41711 7.32079 3.41946 7.3153 3.41992C7.20958 3.51223 7.12475 3.62601 7.06646 3.75369C7.00818 3.88137 6.97778 4.02 6.97729 4.16035C6.97911 4.29191 7.00687 4.42183 7.05898 4.54264C7.1111 4.66346 7.18654 4.7728 7.28098 4.86441C7.37543 4.95602 7.48702 5.02809 7.60937 5.07649C7.73172 5.1249 7.86242 5.14868 7.99397 5.14648C8.20484 5.14634 8.41061 5.08169 8.58366 4.96121C8.61222 4.93996 11.1881 3.04738 17.002 3.04738C22.8158 3.04738 25.4057 4.93332 25.4336 4.94727C25.6104 5.07837 25.8251 5.14831 26.0452 5.14648C26.1768 5.1485 26.3076 5.1245 26.43 5.07585C26.5524 5.0272 26.6639 4.95487 26.7582 4.863C26.8526 4.77112 26.9279 4.66153 26.9797 4.54049C27.0316 4.41946 27.0591 4.28937 27.0605 4.1577C27.0606 3.96046 27.0017 3.76771 26.8914 3.60418C26.7811 3.44066 26.6245 3.31382 26.4416 3.23996Z" fill="white"/>
</svg>
