<svg width="30" height="38" viewBox="0 0 30 38" fill="none" xmlns="http://www.w3.org/2000/svg">
<path d="M24.8943 21.2325C23.6498 23.7547 21.9635 26.2675 20.2393 28.5238C18.6036 30.6508 16.8546 32.6884 15 34.6275C13.1453 32.6884 11.3964 30.6509 9.76075 28.5238C8.0365 26.2675 6.35025 23.7547 5.10575 21.2325C3.847 18.6841 3.125 16.2973 3.125 14.25C3.125 11.1006 4.37611 8.0801 6.60311 5.85311C8.8301 3.62611 11.8506 2.375 15 2.375C18.1494 2.375 21.1699 3.62611 23.3969 5.85311C25.6239 8.0801 26.875 11.1006 26.875 14.25C26.875 16.2973 26.1506 18.6841 24.8943 21.2325ZM15 38C15 38 29.25 24.4958 29.25 14.25C29.25 10.4707 27.7487 6.84612 25.0763 4.17373C22.4039 1.50133 18.7793 0 15 0C11.2207 0 7.59612 1.50133 4.92373 4.17373C2.25133 6.84612 0.75 10.4707 0.75 14.25C0.75 24.4958 15 38 15 38Z" fill="#2A2A2A"/>
<path d="M15 19C13.7402 19 12.532 18.4996 11.6412 17.6088C10.7504 16.718 10.25 15.5098 10.25 14.25C10.25 12.9902 10.7504 11.782 11.6412 10.8912C12.532 10.0004 13.7402 9.5 15 9.5C16.2598 9.5 17.468 10.0004 18.3588 10.8912C19.2496 11.782 19.75 12.9902 19.75 14.25C19.75 15.5098 19.2496 16.718 18.3588 17.6088C17.468 18.4996 16.2598 19 15 19ZM15 21.375C16.8897 21.375 18.7019 20.6243 20.0381 19.2881C21.3743 17.9519 22.125 16.1397 22.125 14.25C22.125 12.3603 21.3743 10.5481 20.0381 9.21186C18.7019 7.87567 16.8897 7.125 15 7.125C13.1103 7.125 11.2981 7.87567 9.96186 9.21186C8.62567 10.5481 7.875 12.3603 7.875 14.25C7.875 16.1397 8.62567 17.9519 9.96186 19.2881C11.2981 20.6243 13.1103 21.375 15 21.375Z" fill="#2A2A2A"/>
</svg>
