<svg width="38" height="38" viewBox="0 0 38 38" fill="none" xmlns="http://www.w3.org/2000/svg">
<path d="M16.7105 9.87997L11.3541 3.69705C10.7366 2.98455 9.60449 2.98772 8.88724 3.70655L4.48241 8.1193C3.17141 9.43188 2.79616 11.381 3.55457 12.9437C8.08547 22.3249 15.6513 29.9014 25.0262 34.4454C26.5873 35.2038 28.5348 34.8285 29.8458 33.516L34.2918 29.0621C35.0122 28.3416 35.0138 27.2032 34.295 26.5857L28.0883 21.2578C27.4392 20.7005 26.4306 20.7733 25.7798 21.4256L23.6202 23.5885C23.5096 23.7043 23.3641 23.7807 23.2059 23.8059C23.0477 23.8311 22.8856 23.8036 22.7446 23.7278C19.2144 21.695 16.2861 18.7628 14.2579 15.2301C14.182 15.0887 14.1544 14.9264 14.1796 14.768C14.2048 14.6095 14.2812 14.4637 14.3972 14.3529L16.5506 12.198C17.2029 11.5425 17.2742 10.5291 16.7105 9.87838V9.87997Z" stroke="#2A2A2A" stroke-width="2" stroke-linecap="round" stroke-linejoin="round"/>
</svg>
