<svg width="39" height="39" viewBox="0 0 39 39" fill="none" xmlns="http://www.w3.org/2000/svg">
<circle cx="19.5" cy="19.5" r="19.5" fill="white" fill-opacity="0.06"/>
<circle cx="19.5" cy="19.5" r="19" stroke="#2A2A2A" stroke-opacity="0.42"/>
<path d="M13.8958 18.2396C15.3958 21.1875 17.8125 23.5937 20.7604 25.1042L23.0521 22.8125C23.3333 22.5312 23.75 22.4375 24.1146 22.5625C25.2812 22.9479 26.5417 23.1562 27.8333 23.1562C28.4062 23.1562 28.875 23.625 28.875 24.1979V27.8333C28.875 28.4062 28.4062 28.875 27.8333 28.875C18.0521 28.875 10.125 20.9479 10.125 11.1667C10.125 10.5937 10.5937 10.125 11.1667 10.125H14.8125C15.3854 10.125 15.8542 10.5937 15.8542 11.1667C15.8542 12.4688 16.0625 13.7188 16.4479 14.8854C16.5625 15.25 16.4792 15.6562 16.1875 15.9479L13.8958 18.2396Z" fill="#2A2A2A"/>
</svg>
