<svg width="40" height="40" viewBox="0 0 40 40" fill="none" xmlns="http://www.w3.org/2000/svg">
<circle cx="20.0335" cy="19.9" r="19.9" fill="#F7603F"/>
<path d="M19.5233 17.2226C17.7677 17.2226 16.335 18.6553 16.335 20.4109C16.335 22.1665 17.7677 23.5992 19.5233 23.5992C21.2789 23.5992 22.7116 22.1665 22.7116 20.4109C22.7116 18.6553 21.2789 17.2226 19.5233 17.2226ZM29.0858 20.4109C29.0858 19.0907 29.0977 17.7823 29.0236 16.4644C28.9495 14.9337 28.6002 13.5751 27.4809 12.4557C26.3591 11.334 25.0029 10.9871 23.4722 10.913C22.1519 10.8388 20.8436 10.8508 19.5257 10.8508C18.2054 10.8508 16.897 10.8388 15.5791 10.913C14.0484 10.9871 12.6898 11.3363 11.5704 12.4557C10.4487 13.5775 10.1019 14.9337 10.0277 16.4644C9.95357 17.7847 9.96552 19.093 9.96552 20.4109C9.96552 21.7288 9.95357 23.0396 10.0277 24.3575C10.1019 25.8882 10.4511 27.2468 11.5704 28.3662C12.6922 29.4879 14.0484 29.8347 15.5791 29.9089C16.8994 29.983 18.2078 29.9711 19.5257 29.9711C20.8459 29.9711 22.1543 29.983 23.4722 29.9089C25.0029 29.8347 26.3615 29.4855 27.4809 28.3662C28.6026 27.2444 28.9495 25.8882 29.0236 24.3575C29.1001 23.0396 29.0858 21.7312 29.0858 20.4109V20.4109ZM19.5233 25.3166C16.8085 25.3166 14.6176 23.1257 14.6176 20.4109C14.6176 17.6962 16.8085 15.5053 19.5233 15.5053C22.238 15.5053 24.4289 17.6962 24.4289 20.4109C24.4289 23.1257 22.238 25.3166 19.5233 25.3166ZM24.6298 16.4501C23.996 16.4501 23.4841 15.9382 23.4841 15.3044C23.4841 14.6706 23.996 14.1587 24.6298 14.1587C25.2637 14.1587 25.7755 14.6706 25.7755 15.3044C25.7757 15.4549 25.7462 15.604 25.6887 15.743C25.6312 15.8821 25.5468 16.0085 25.4404 16.1149C25.3339 16.2214 25.2076 16.3057 25.0685 16.3633C24.9294 16.4208 24.7803 16.4503 24.6298 16.4501V16.4501Z" fill="white"/>
</svg>
