<svg width="40" height="40" viewBox="0 0 40 40" fill="none" xmlns="http://www.w3.org/2000/svg">
<circle cx="19.9666" cy="19.9" r="19.9" fill="#1D9BF0"/>
<g clip-path="url(#clip0_102_9)">
<path d="M31.3381 13.2027C30.4859 13.5803 29.5705 13.8354 28.6082 13.9507C29.6011 13.3566 30.344 12.4215 30.6982 11.3198C29.7653 11.874 28.7443 12.264 27.6795 12.473C26.9635 11.7085 26.0151 11.2018 24.9816 11.0315C23.9481 10.8613 22.8873 11.037 21.9639 11.5314C21.0404 12.0258 20.3061 12.8112 19.8748 13.7657C19.4435 14.7202 19.3394 15.7905 19.5787 16.8102C17.6884 16.7153 15.8391 16.224 14.151 15.3681C12.4629 14.5123 10.9736 13.311 9.77972 11.8423C9.37152 12.5465 9.1368 13.3629 9.1368 14.2324C9.13634 15.0151 9.3291 15.7859 9.69796 16.4762C10.0668 17.1666 10.6004 17.7552 11.2513 18.1899C10.4964 18.1659 9.75816 17.9619 9.09802 17.595V17.6562C9.09794 18.754 9.47768 19.818 10.1728 20.6677C10.8679 21.5174 11.8356 22.1005 12.9117 22.3179C12.2114 22.5074 11.4772 22.5354 10.7645 22.3996C11.0681 23.3442 11.6595 24.1702 12.4559 24.762C13.2523 25.3538 14.2138 25.6817 15.2058 25.6999C13.5218 27.0219 11.442 27.739 9.3011 27.7358C8.92186 27.7359 8.54294 27.7138 8.16629 27.6695C10.3394 29.0667 12.8692 29.8083 15.4528 29.8054C24.1985 29.8054 28.9797 22.5618 28.9797 16.2795C28.9797 16.0754 28.9746 15.8693 28.9654 15.6652C29.8953 14.9926 30.6981 14.1598 31.336 13.2058L31.3381 13.2027Z" fill="white"/>
</g>
<defs>
<clipPath id="clip0_102_9">
<rect width="24.4923" height="24.4923" fill="white" transform="translate(7.21008 8.16455)"/>
</clipPath>
</defs>
</svg>
