<svg width="40" height="40" viewBox="0 0 40 40" fill="none" xmlns="http://www.w3.org/2000/svg">
<circle cx="19.9" cy="19.9" r="19.9" fill="#0077FF"/>
<g clip-path="url(#clip0_102_8)">
<path fill-rule="evenodd" clip-rule="evenodd" d="M31.0746 14.2345C31.244 13.6773 31.0746 13.2671 30.2633 13.2671H27.5844C26.9027 13.2671 26.5884 13.6212 26.418 14.0121C26.418 14.0121 25.0556 17.2736 23.1258 19.3922C22.5013 20.0066 22.2176 20.2015 21.8767 20.2015C21.7063 20.2015 21.4501 20.0066 21.4501 19.4483V14.2345C21.4501 13.5651 21.2624 13.2671 20.6949 13.2671H16.4823C16.0567 13.2671 15.8006 13.5773 15.8006 13.8723C15.8006 14.506 16.766 14.6529 16.865 16.4368V20.3127C16.865 21.1628 16.7088 21.3169 16.368 21.3169C15.4597 21.3169 13.2503 18.04 11.9389 14.2907C11.6848 13.561 11.4277 13.2671 10.7429 13.2671H8.06202C7.29663 13.2671 7.14355 13.6212 7.14355 14.0121C7.14355 14.7081 8.05181 18.1656 11.3736 22.7385C13.5881 25.8612 16.7058 27.5543 19.5458 27.5543C21.2491 27.5543 21.4593 27.1787 21.4593 26.5307V24.1702C21.4593 23.4181 21.6206 23.2681 22.1604 23.2681C22.5584 23.2681 23.2391 23.4641 24.829 24.9693C26.6456 26.7542 26.9446 27.5543 27.9671 27.5543H30.646C31.4114 27.5543 31.7951 27.1787 31.5746 26.4358C31.3318 25.6969 30.4643 24.6244 29.3142 23.3518C28.6896 22.6272 27.7528 21.8465 27.4681 21.4557C27.0711 20.9546 27.1844 20.7311 27.4681 20.2852C27.4681 20.2852 30.7337 15.7684 31.0736 14.2345H31.0746Z" fill="white"/>
</g>
<defs>
<clipPath id="clip0_102_8">
<rect width="24.4923" height="24.4923" fill="white" transform="translate(7.14355 8.16455)"/>
</clipPath>
</defs>
</svg>
